<mxfile host="app.diagrams.net" modified="2022-09-08T06:47:10.499Z" agent="5.0 (Macintosh; Intel Mac OS X 10_15_7) AppleWebKit/537.36 (KHTML, like Gecko) Chrome/103.0.5060.134 Safari/537.36" etag="RZx0sK648X2RfgI4dXee" version="20.3.0" type="github">
  <diagram id="b_qfECKMN81AFjUQcwBE" name="Page-1">
    <mxGraphModel dx="1105" dy="743" grid="1" gridSize="10" guides="1" tooltips="1" connect="1" arrows="1" fold="1" page="1" pageScale="1" pageWidth="827" pageHeight="1169" math="0" shadow="0">
      <root>
        <mxCell id="0" />
        <mxCell id="1" parent="0" />
        <mxCell id="_7zmqFTzkSrf0MBWX1QP-1" value="" style="sketch=0;points=[[0,0,0],[0.25,0,0],[0.5,0,0],[0.75,0,0],[1,0,0],[0,1,0],[0.25,1,0],[0.5,1,0],[0.75,1,0],[1,1,0],[0,0.25,0],[0,0.5,0],[0,0.75,0],[1,0.25,0],[1,0.5,0],[1,0.75,0]];outlineConnect=0;fontColor=#232F3E;gradientColor=#945DF2;gradientDirection=north;fillColor=#5A30B5;strokeColor=#ffffff;dashed=0;verticalLabelPosition=bottom;verticalAlign=top;align=center;html=1;fontSize=12;fontStyle=0;aspect=fixed;shape=mxgraph.aws4.resourceIcon;resIcon=mxgraph.aws4.elastic_load_balancing;" vertex="1" parent="1">
          <mxGeometry x="240" y="200" width="78" height="78" as="geometry" />
        </mxCell>
        <mxCell id="_7zmqFTzkSrf0MBWX1QP-2" value="" style="shape=actor;whiteSpace=wrap;html=1;" vertex="1" parent="1">
          <mxGeometry x="90" y="190" width="40" height="60" as="geometry" />
        </mxCell>
        <mxCell id="_7zmqFTzkSrf0MBWX1QP-3" value="" style="sketch=0;points=[[0,0,0],[0.25,0,0],[0.5,0,0],[0.75,0,0],[1,0,0],[0,1,0],[0.25,1,0],[0.5,1,0],[0.75,1,0],[1,1,0],[0,0.25,0],[0,0.5,0],[0,0.75,0],[1,0.25,0],[1,0.5,0],[1,0.75,0]];outlineConnect=0;fontColor=#232F3E;gradientColor=#945DF2;gradientDirection=north;fillColor=#5A30B5;strokeColor=#ffffff;dashed=0;verticalLabelPosition=bottom;verticalAlign=top;align=center;html=1;fontSize=12;fontStyle=0;aspect=fixed;shape=mxgraph.aws4.resourceIcon;resIcon=mxgraph.aws4.route_53;" vertex="1" parent="1">
          <mxGeometry x="240" y="50" width="68" height="68" as="geometry" />
        </mxCell>
        <mxCell id="_7zmqFTzkSrf0MBWX1QP-25" value="" style="endArrow=classic;startArrow=classic;html=1;rounded=0;exitX=0.9;exitY=0.5;exitDx=0;exitDy=0;exitPerimeter=0;entryX=0;entryY=0.25;entryDx=0;entryDy=0;entryPerimeter=0;edgeStyle=orthogonalEdgeStyle;" edge="1" parent="1" source="_7zmqFTzkSrf0MBWX1QP-2" target="_7zmqFTzkSrf0MBWX1QP-3">
          <mxGeometry width="50" height="50" relative="1" as="geometry">
            <mxPoint x="380" y="240" as="sourcePoint" />
            <mxPoint x="430" y="190" as="targetPoint" />
          </mxGeometry>
        </mxCell>
        <mxCell id="_7zmqFTzkSrf0MBWX1QP-27" value="" style="sketch=0;outlineConnect=0;fontColor=#232F3E;gradientColor=none;fillColor=#D45B07;strokeColor=none;dashed=0;verticalLabelPosition=bottom;verticalAlign=top;align=center;html=1;fontSize=12;fontStyle=0;aspect=fixed;pointerEvents=1;shape=mxgraph.aws4.m5_instance;" vertex="1" parent="1">
          <mxGeometry x="440" y="80" width="48" height="48" as="geometry" />
        </mxCell>
        <mxCell id="_7zmqFTzkSrf0MBWX1QP-28" value="" style="sketch=0;outlineConnect=0;fontColor=#232F3E;gradientColor=none;fillColor=#D45B07;strokeColor=none;dashed=0;verticalLabelPosition=bottom;verticalAlign=top;align=center;html=1;fontSize=12;fontStyle=0;aspect=fixed;pointerEvents=1;shape=mxgraph.aws4.m5_instance;" vertex="1" parent="1">
          <mxGeometry x="440" y="180" width="48" height="48" as="geometry" />
        </mxCell>
        <mxCell id="_7zmqFTzkSrf0MBWX1QP-30" value="" style="rounded=0;whiteSpace=wrap;html=1;shadow=0;dashed=1;fillStyle=auto;strokeColor=#4D4D4D;strokeWidth=2;fillColor=none;gradientColor=none;perimeterSpacing=2;" vertex="1" parent="1">
          <mxGeometry x="414" y="68" width="106" height="72" as="geometry" />
        </mxCell>
        <mxCell id="_7zmqFTzkSrf0MBWX1QP-32" value="" style="sketch=0;outlineConnect=0;fontColor=#232F3E;gradientColor=none;fillColor=#D45B07;strokeColor=none;dashed=0;verticalLabelPosition=bottom;verticalAlign=top;align=center;html=1;fontSize=12;fontStyle=0;aspect=fixed;pointerEvents=1;shape=mxgraph.aws4.m5_instance;rounded=0;shadow=0;fillStyle=auto;strokeWidth=2;" vertex="1" parent="1">
          <mxGeometry x="440" y="260" width="48" height="48" as="geometry" />
        </mxCell>
        <mxCell id="_7zmqFTzkSrf0MBWX1QP-33" value="" style="rounded=0;whiteSpace=wrap;html=1;shadow=0;dashed=1;fillStyle=auto;strokeColor=#4D4D4D;strokeWidth=2;fillColor=none;gradientColor=none;perimeterSpacing=2;" vertex="1" parent="1">
          <mxGeometry x="411" y="156" width="106" height="72" as="geometry" />
        </mxCell>
        <mxCell id="_7zmqFTzkSrf0MBWX1QP-34" value="" style="rounded=0;whiteSpace=wrap;html=1;shadow=0;dashed=1;fillStyle=auto;strokeColor=#4D4D4D;strokeWidth=2;fillColor=none;gradientColor=none;perimeterSpacing=2;" vertex="1" parent="1">
          <mxGeometry x="414" y="250" width="106" height="72" as="geometry" />
        </mxCell>
        <mxCell id="_7zmqFTzkSrf0MBWX1QP-36" value="" style="endArrow=classic;startArrow=classic;html=1;rounded=0;entryX=0;entryY=0.5;entryDx=0;entryDy=0;" edge="1" parent="1" target="_7zmqFTzkSrf0MBWX1QP-34">
          <mxGeometry width="50" height="50" relative="1" as="geometry">
            <mxPoint x="318" y="250" as="sourcePoint" />
            <mxPoint x="368" y="200" as="targetPoint" />
          </mxGeometry>
        </mxCell>
        <mxCell id="_7zmqFTzkSrf0MBWX1QP-37" value="" style="endArrow=classic;startArrow=classic;html=1;rounded=0;entryX=0;entryY=0.5;entryDx=0;entryDy=0;exitX=1;exitY=0.5;exitDx=0;exitDy=0;exitPerimeter=0;" edge="1" parent="1" source="_7zmqFTzkSrf0MBWX1QP-1" target="_7zmqFTzkSrf0MBWX1QP-33">
          <mxGeometry width="50" height="50" relative="1" as="geometry">
            <mxPoint x="328" y="260" as="sourcePoint" />
            <mxPoint x="422" y="296" as="targetPoint" />
            <Array as="points">
              <mxPoint x="380" y="220" />
            </Array>
          </mxGeometry>
        </mxCell>
        <mxCell id="_7zmqFTzkSrf0MBWX1QP-38" value="" style="endArrow=classic;startArrow=classic;html=1;rounded=0;entryX=0;entryY=0.5;entryDx=0;entryDy=0;exitX=1;exitY=0.5;exitDx=0;exitDy=0;exitPerimeter=0;" edge="1" parent="1" target="_7zmqFTzkSrf0MBWX1QP-30">
          <mxGeometry width="50" height="50" relative="1" as="geometry">
            <mxPoint x="318" y="228" as="sourcePoint" />
            <mxPoint x="409" y="181" as="targetPoint" />
          </mxGeometry>
        </mxCell>
      </root>
    </mxGraphModel>
  </diagram>
</mxfile>
